<svg xmlns="http://www.w3.org/2000/svg" width="512" height="512"><path fill="#010101" d="M276.113 5.402c2.38 1.78 4.631 3.662 6.887 5.598l3.29 2.805q3.626 3.102 7.237 6.222c2.93 2.521 5.906 4.979 8.91 7.41 5.052 4.102 9.964 8.349 14.87 12.62 5.655 4.922 11.368 9.77 17.1 14.6q3.236 2.73 6.466 5.466l3.23 2.733a3059 3059 0 0 1 8.499 7.21l1.787 1.52q1.695 1.44 3.386 2.887c2.347 1.993 4.66 3.816 7.225 5.527l.06-2.611q.119-4.857.257-9.712.057-2.09.105-4.18c.273-11.887.59-22.062 8.578-31.497 6.913-6.517 14.647-7.31 23.773-7.3l2.798-.014q2.918-.008 5.834-.002c2.954.003 5.907-.02 8.86-.045q2.85-.004 5.696-.002l2.643-.028c8.974.067 16.082 2.228 22.67 8.422 4.661 5.316 6.88 11.503 6.81 18.528l-.018 2.756-.035 3.002-.047 6.524-.03 3.493c-.05 7.388-.045 14.776-.05 22.164-.009 6.491-.037 12.982-.106 19.473-.066 6.282-.079 12.561-.055 18.843q0 3.585-.06 7.17c-.9 12.939-.9 12.939 3.72 24.425 2.773 2.29 5.413 3.943 8.597 5.591a73 73 0 0 1 3.68 3.117l1.604 1.382 1.591 1.376 3.578 3.078 1.787 1.537c2.786 2.39 5.584 4.764 8.385 7.135l1.603 1.362c2.667 2.26 5.351 4.49 8.077 6.677 8.154 6.57 14.742 12.64 16.695 23.336.979 11.552.27 21.186-7.437 30.375-5.676 5.963-11.947 11.152-20.523 11.765-2.135.031-4.261.013-6.395-.03l-2.235-.025c-1.804-.02-3.607-.051-5.41-.085l.011 3.642a52907 52907 0 0 1 .209 96.212l.003 2.121c.017 11.326.049 22.652.086 33.978q.055 17.442.067 34.883c.006 6.529.018 13.057.047 19.586q.039 9.22.03 18.443 0 3.38.024 6.76c.02 3.084.015 6.167.004 9.25l.035 2.684c-.074 7.818-2.434 14.195-6.641 20.753-8.556 7.999-17.64 8.41-28.816 8.323q-2.415.009-4.83.024c-4.406.02-8.81.01-13.215-.005-4.758-.012-9.516.006-14.274.02-9.313.022-18.626.017-27.94.002q-11.355-.015-22.71-.007l-3.267.002-6.572.005c-20.53.015-41.06-.002-61.591-.029q-26.415-.031-52.829.005a29813 29813 0 0 1-71.174.015c-7.56-.005-15.12.003-22.679.014q-13.823.023-27.644-.016c-4.7-.013-9.4-.018-14.1-.002q-6.458.021-12.916-.02a409 409 0 0 0-4.664.01c-8.744.063-16.36-.287-23.654-5.653-7.282-7.511-9.46-15.686-9.36-25.884l-.009-2.928c-.004-3.223.012-6.446.028-9.668v-6.95c-.002-6.278.016-12.556.037-18.834.019-6.565.02-13.13.024-19.695q.013-16.524.054-33.047.041-17.016.061-34.03l.003-2.121.011-10.534c.031-29.103.084-58.206.151-87.309l-3.307.055-4.35.043-2.172.04c-9.301.066-15.777-3.036-22.491-9.427C2.585 239.485-.39 232.17-.5 222c.157-11.01 3.957-19.063 11.5-27 2.57-2.287 5.214-4.432 7.918-6.559 3.395-2.69 6.68-5.485 9.957-8.316l3.582-3.082 1.788-1.538c4.36-3.74 8.756-7.44 13.146-11.146q4.057-3.427 8.109-6.859l3.25-2.75 1.625-1.375L208.25 28.25l1.626-1.376 3.24-2.738c2.77-2.34 5.53-4.69 8.275-7.062C233.283 6.827 233.283 6.827 240 3l1.766-1.023c10.643-5.045 24.857-2.873 34.347 3.425"/><path fill="#F4F4F4" d="M255 79c4.144 1.7 7.244 4.641 10.563 7.563a3145 3145 0 0 0 5.672 4.922c2.365 2.03 4.779 3.994 7.202 5.953 5.106 4.143 10.061 8.444 15.016 12.765A407 407 0 0 0 304.5 119.5c5.088 4.119 10.02 8.401 14.953 12.703A407 407 0 0 0 330.5 141.5c5.088 4.119 10.02 8.401 14.953 12.703A407 407 0 0 0 356.5 163.5c5.088 4.119 10.02 8.401 14.953 12.703A407 407 0 0 0 382.5 185.5c5.033 4.078 9.923 8.305 14.808 12.558 5.655 4.92 11.367 9.77 17.1 14.6q3.234 2.728 6.463 5.463l3.248 2.748a3226 3226 0 0 1 9.928 8.424c4.489 3.815 4.489 3.815 6.135 5.294 1.835 1.527 1.835 1.527 4.292 2.613 3.408 1.935 5.259 3.57 7.526 6.8 2.006 7.52 1.303 15.719 1.199 23.427q.005 3.627.024 7.255c.017 5.877-.01 11.754-.06 17.63-.057 6.847-.06 13.692-.06 20.538a5988 5988 0 0 1-.129 36.636q-.113 17.775-.123 35.55l-.001 2.213-.003 6.614-.001 2.194c-.008 11.297-.045 22.593-.084 33.89q-.021 6.14-.03 12.281-.016 10.646-.097 21.291-.022 3.54-.024 7.077c-.002 3.213-.03 6.425-.063 9.638l.015 2.848c-.104 6.305-.104 6.305-2.472 9.466-3.253 2.259-5.035 2.576-8.963 2.572l-3.12.004-3.434-.01h-3.607q-4.903-.001-9.805-.013c-3.414-.006-6.828-.006-10.242-.008q-9.7-.005-19.4-.021-11.043-.016-22.085-.022-22.717-.016-45.435-.05a4847 4847 0 0 1-.57-44.907c-.057-6.952-.134-13.903-.26-20.853-.122-6.712-.185-13.42-.214-20.133q-.03-3.837-.119-7.673c-.472-21.132-.472-21.132 3.575-25.972 2.781-2.306 5.34-3.91 8.588-5.462 20.248-15.388 34.806-44.292 38.675-69.101 3.858-34.395-3.374-66.985-24.863-94.367-8.927-11.587-8.927-11.587-21.46-17.966-6.358-.009-10.314.424-15.352 4.434-4.482 6.074-4.548 11.161-4.469 18.559l-.021 3.342c-.03 4.697-.013 9.394 0 14.09.002 3.44-.02 6.878-.041 10.318l.034 3.188c-.052 7.677-1.348 13.348-6.878 18.878-5.2 3.22-9.92 3.881-15.972 3.931l-2.151.026c-2.331.024-4.663.032-6.994.04l-4.894.026q-5.122.024-10.243.028c-4.36.005-8.72.043-13.08.088-3.368.03-6.736.037-10.104.038q-2.41.006-4.82.038c-16.312.196-16.312.196-22.367-5.59-3.701-4.08-5.118-6.454-5.158-11.905l-.03-3.096-.023-3.358-.086-7.008q-.063-5.536-.104-11.073c-.028-3.557-.074-7.113-.122-10.67l-.01-3.333c-.102-6.365-.45-11.325-5.002-16.202-5.178-3.96-8.035-4.829-14.516-4.761-4.988.687-8.193 3.196-11.949 6.406l-1.762 1.465c-18.859 17.276-32.253 46.622-33.4 72.12-.037 3.407-.07 6.812-.078 10.218-.01 2.164-.04 4.327-.072 6.49-.105 13.38 2.038 25.762 7 38.27l1.059 2.705c6.564 16.326 18.707 38.109 34.672 47.093 7.023 4.114 7.023 4.114 8.493 8.129.32 3.026.326 5.912.223 8.953l.005 3.432c-.007 3.73-.085 7.455-.163 11.184q-.029 3.885-.043 7.772c-.035 6.113-.113 12.225-.214 18.338-.112 6.962-.167 13.924-.217 20.887-.104 14.316-.28 28.63-.503 42.944q-23.925.177-47.853.26c-7.406.025-14.812.06-22.219.117q-9.682.076-19.367.093c-3.418.007-6.835.022-10.253.059-3.817.036-7.633.04-11.45.039l-3.43.054-3.157-.02-2.735.013c-3.858-.936-5.225-2.401-7.536-5.615-.735-3.289-.71-6.506-.689-9.866l-.04-3.034a943 943 0 0 1-.045-10.075q-.03-3.61-.065-7.22c-.057-6.541-.082-13.083-.096-19.624q-.016-6.132-.046-12.264a9138 9138 0 0 1-.103-33.981l-.002-2.196-.007-8.828c-.011-11.82-.083-23.638-.18-35.458q-.15-18.22-.154-36.44c-.002-6.816-.024-13.63-.1-20.446a1100 1100 0 0 1-.035-19.24q.008-3.525-.055-7.05c-.312-18.651-.312-18.651 4.387-23.99 2.623-2.44 5.441-4.366 8.513-6.196 2.984-1.897 5.567-4.263 8.217-6.592q1.623-1.379 3.25-2.75l1.625-1.375z"/><path fill="#F24234" d="M256.625 16.5c10.005.22 19.406 11.685 26.604 17.962a772 772 0 0 0 8.334 7.1l3.222 2.723 1.606 1.356q4.057 3.427 8.109 6.859l3.25 2.75 151.125 127.875 3.246 2.746q4.103 3.47 8.2 6.95l1.658 1.407q1.635 1.387 3.267 2.779c2.59 2.2 5.2 4.342 7.875 6.438 11.17 8.752 11.17 8.752 12.207 15.778.233 4.973-.451 8.601-3.328 12.777-4.704 4.84-7.99 6.643-14.687 7.438-9.673-.249-17.768-10.174-24.618-16.208a286 286 0 0 0-9.195-7.73c-5.088-4.119-10.02-8.401-14.953-12.703A407 407 0 0 0 417.5 193.5c-5.088-4.119-10.02-8.401-14.953-12.703A407 407 0 0 0 391.5 171.5c-5.088-4.119-10.02-8.401-14.953-12.703A407 407 0 0 0 365.5 149.5c-5.088-4.119-10.02-8.401-14.953-12.703A407 407 0 0 0 339.5 127.5c-5.088-4.119-10.02-8.401-14.953-12.703A407 407 0 0 0 313.5 105.5c-5.088-4.119-10.02-8.401-14.953-12.703a469 469 0 0 0-13.656-11.399 247 247 0 0 1-6.657-5.734c-.659-.585-1.318-1.17-1.998-1.771a427 427 0 0 1-3.847-3.465c-5.436-4.826-10.753-8.144-18.362-7.764-7.29 1.208-12.178 6.036-17.406 10.922-2.551 2.35-5.173 4.547-7.871 6.727a562 562 0 0 0-12.562 10.5l-1.778 1.527L209 97c-13.253 11.424-13.253 11.424-19.437 16.438-5.106 4.143-10.061 8.444-15.016 12.765-4.485 3.901-9.052 7.682-13.672 11.422-3.51 2.9-6.943 5.883-10.375 8.875a557 557 0 0 1-15.625 13.125c-3.51 2.9-6.943 5.883-10.375 8.875a569 569 0 0 1-15.7 13.2c-3.872 3.181-7.669 6.449-11.468 9.718a1819 1819 0 0 1-13.433 11.433 1464 1464 0 0 0-10.232 8.732c-5.606 4.824-11.25 9.587-16.995 14.245a627 627 0 0 0-5.656 4.656l-2.953 2.453-2.653 2.215c-5.338 4.093-9.771 4.69-16.41 3.848-5.09-2.497-9.52-6.582-11.812-11.875L17 225l-.375-3.75c.143-5.174 1.988-8.403 5.375-12.25 3.625-3.354 7.402-6.479 11.246-9.577 2.79-2.263 5.52-4.595 8.254-6.923l3.25-2.75 1.625-1.375L220.25 41.25l1.627-1.377 3.233-2.733q4.206-3.552 8.386-7.136l1.746-1.492a863 863 0 0 0 3.27-2.809c5.956-5.081 10.443-8.145 18.113-9.203"/><path fill="#00BBD3" d="m188 205 .011 1.786c.042 6.182.112 12.363.197 18.545q.042 3.452.063 6.904c.022 3.325.068 6.648.12 9.972l.003 3.076c.225 11.148 3.487 19.592 11.235 27.62 3.21 2.84 6.35 4.666 10.371 6.097l2.646 1.028c3.747 1.086 7.175 1.26 11.037 1.247l2.259.015c2.452.014 4.903.013 7.355.01l5.149.014q5.39.01 10.783.002c4.583-.006 9.167.01 13.75.034 3.546.015 7.09.016 10.636.013q2.532 0 5.066.015c12.93.068 24.06-.695 34.319-9.378 8.146-8.436 10.596-18.263 10.61-29.695.016-1.074.032-2.147.05-3.253.048-3.393.07-6.784.09-10.177q.042-3.472.09-6.945.108-8.464.16-16.93 1.672 1.415 3.34 2.834l1.88 1.595c12.757 11.256 21.034 27.49 25.78 43.571l.965 3c7.295 26.894 1.22 55.351-12.232 79.076-13.015 21.847-35.501 39.252-60.23 45.561-29.645 6.846-57.397 3.147-83.652-12.472-4.689-2.95-8.799-6.405-12.851-10.165l-2.762-2.484c-17.87-16.85-29.172-40.525-30.365-65.13-.494-18.233.56-34.545 8.127-51.386l1.305-3.012C166.388 229.325 179.59 205 188 205"/><path fill="#009587" d="m205 390 9 3q3.932 1.298 7.875 2.563l1.91.63c25.2 8.023 54.12 5.054 78.293-5.021C305 390 305 390 307 390v105H205z"/><path fill="#CED6DA" d="M255 79c4.144 1.7 7.244 4.641 10.563 7.563q1.893 1.645 3.789 3.289l1.883 1.633c2.365 2.03 4.779 3.994 7.202 5.953 5.106 4.143 10.061 8.444 15.016 12.765A407 407 0 0 0 304.5 119.5c5.088 4.119 10.02 8.401 14.953 12.703A407 407 0 0 0 330.5 141.5c5.088 4.119 10.02 8.401 14.953 12.703A407 407 0 0 0 356.5 163.5c5.088 4.119 10.02 8.401 14.953 12.703A407 407 0 0 0 382.5 185.5c5.033 4.078 9.923 8.305 14.808 12.558 5.655 4.92 11.367 9.77 17.1 14.6q3.234 2.728 6.463 5.463l3.248 2.748a3226 3226 0 0 1 9.928 8.424c4.489 3.815 4.489 3.815 6.135 5.294 1.835 1.527 1.835 1.527 4.292 2.613 3.408 1.935 5.259 3.57 7.526 6.8 2.006 7.52 1.303 15.719 1.199 23.427q.005 3.627.024 7.255c.017 5.877-.01 11.754-.06 17.63-.057 6.847-.06 13.692-.06 20.538a5988 5988 0 0 1-.129 36.636q-.113 17.775-.123 35.55l-.001 2.213-.003 6.614-.001 2.194c-.008 11.297-.045 22.593-.084 33.89q-.021 6.14-.03 12.281-.016 10.646-.097 21.291-.022 3.54-.024 7.077c-.002 3.213-.03 6.425-.063 9.638l.015 2.848c-.104 6.305-.104 6.305-2.472 9.466-3.253 2.259-5.035 2.576-8.963 2.572l-3.12.004-3.434-.01h-3.607q-4.903-.001-9.805-.013c-3.414-.006-6.828-.006-10.242-.008q-9.7-.005-19.4-.021-12.126-.017-24.25-.023c-14.424-.01-28.847-.03-43.27-.049V379h1v115h109a24591 24591 0 0 0 .604-108.026l.009-2.295c.048-12.255.135-24.509.236-36.763q.154-18.867.186-37.735c.015-7.76.063-15.517.152-23.276.065-5.954.072-11.907.057-17.861q.004-3.66.067-7.318c.888-12.779.888-12.779-3.714-24.111-2.772-2.298-5.414-3.957-8.597-5.615a74 74 0 0 1-3.68-3.117l-1.603-1.381-1.592-1.377-3.582-3.082-1.788-1.538c-2.762-2.368-5.538-4.72-8.317-7.067l-1.613-1.363-3.216-2.716q-4.057-3.427-8.109-6.859l-3.25-2.75-112.127-94.877-3.228-2.73a4251 4251 0 0 1-8.461-7.174l-1.774-1.506q-1.675-1.422-3.348-2.848C254.605 88.317 251.87 86.093 249 84z"/><path fill="#F34234" d="m398.281 42.336 2.7-.015q2.82-.005 5.639.027c2.871.027 5.739 0 8.61-.032q2.745.005 5.489.02l2.592-.03 2.437.047 2.128.012c3.505 1.048 4.943 2.73 7.124 5.635.695 3.013.633 5.932.568 9.013l.002 2.721c-.004 2.96-.042 5.92-.082 8.88q-.014 3.082-.021 6.166c-.02 5.404-.068 10.807-.124 16.211-.05 5.517-.074 11.033-.099 16.55-.053 10.82-.139 21.64-.244 32.459-2.768-1.343-4.98-2.678-7.285-4.723l-1.84-1.617-1.937-1.722q-2.032-1.786-4.067-3.567l-2.008-1.758c-2.414-2.09-4.88-4.108-7.363-6.113-5.168-4.184-10.19-8.525-15.2-12.896l-1.82-1.588-1.596-1.398c-2.006-1.805-2.006-1.805-5.054-3.603-2.074-1.741-2.754-2.695-3.387-5.357-.222-2.985-.248-5.915-.205-8.908l-.01-3.306q0-3.454.045-6.909c.04-3.523.02-7.043-.005-10.566q.01-3.36.033-6.719l-.021-3.188c.087-4.554.248-7.302 2.684-11.224 4.186-2.534 7.504-2.559 12.317-2.502"/><path fill="#C51D1D" d="M253 17c6.662-.864 9.887.67 15.176 4.688 5.094 4.17 10.09 8.447 15.053 12.774a772 772 0 0 0 8.334 7.1l3.222 2.723 1.606 1.356q4.057 3.427 8.109 6.859l3.25 2.75 151.125 127.875 3.246 2.746q4.103 3.47 8.2 6.95l1.658 1.407q1.635 1.387 3.267 2.779c2.59 2.2 5.2 4.342 7.875 6.438 11.17 8.752 11.17 8.752 12.207 15.778.233 4.973-.451 8.601-3.328 12.777-4.033 4.15-7.199 6.692-13.07 7.168-1.978.019-3.955-.072-5.93-.168l-2-2 1.875-1.625c4.305-4.811 4.657-10.277 4.48-16.516-1.72-13.845-15.301-22.303-25.375-30.414-3.553-2.915-7.017-5.923-10.48-8.945-4.282-3.734-8.583-7.425-13-11-5.088-4.119-10.02-8.401-14.953-12.703A407 407 0 0 0 402.5 146.5c-5.088-4.119-10.02-8.401-14.953-12.703A407 407 0 0 0 376.5 124.5c-5.088-4.119-10.02-8.401-14.953-12.703A407 407 0 0 0 350.5 102.5c-5.088-4.119-10.02-8.401-14.953-12.703A407 407 0 0 0 324.5 80.5c-5.088-4.119-10.02-8.401-14.953-12.703A407 407 0 0 0 298.5 58.5c-5.088-4.119-10.02-8.401-14.953-12.703-4.47-3.89-9.023-7.659-13.629-11.387C263.844 29.393 257.934 24.181 252 19z"/><path fill="#00828E" d="M324 205c15.267 13.086 25.296 28.674 31 48l.965 3c7.295 26.894 1.22 55.351-12.232 79.076C330.757 356.858 309.8 371.962 286 380h-2v-2c2.055-1.445 2.055-1.445 4.875-3.125 25.668-15.927 42.748-41.244 49.938-70.5 1.347-7.34 1.469-14.61 1.5-22.062l.016-3.419c-.166-19.426-5.872-35.697-14.329-52.894l-1 24h-1z"/><path fill="#00695C" d="M307 390v105h-17v-99c14.4-6 14.4-6 17-6"/><path fill="#C71E1E" d="M416 43c2.227-.136 4.457-.232 6.688-.312l3.761-.176c4.612.634 5.745 1.81 8.551 5.488.698 3.012.633 5.933.568 9.013l.002 2.721c-.004 2.96-.042 5.92-.082 8.88q-.014 3.082-.021 6.166c-.02 5.404-.068 10.807-.124 16.211-.05 5.517-.074 11.033-.099 16.55-.053 10.82-.139 21.64-.244 32.459-6.582-2.998-15.072-7.85-17.744-14.987-1.134-5.517-.872-11.101-.71-16.7q.007-2.69-.003-5.38c-.004-4.689.069-9.374.16-14.062.079-4.784.09-9.567.106-14.351.018-5.372.043-10.742.123-16.113l.034-2.464q.032-2.275.077-4.552c.042-3.097-.054-5.425-1.043-8.391"/></svg>