<svg xmlns="http://www.w3.org/2000/svg" width="307" height="307" shape-rendering="geometricPrecision" image-rendering="optimizeQuality" fill-rule="evenodd"><path fill="#fefefe" d="M136 0h35a156 156 0 0 1 136 136v35a156 156 0 0 1-136 136h-35A156 156 0 0 1 0 171v-35A156 156 0 0 1 136 0z"/><path fill="#ef8637" d="M71 134c-12-8-23-7-31 5l-2-19c-7 4-14 5-21 1-8-7-7-13 2-19l79-58c5-3 10-3 16-1a2032 2032 0 0 1 86 65c2 8-1 13-8 15-5 1-10 0-14-2a364 364 0 0 1-2-26c-1-6-5-9-10-11-11-3-20 0-26 9l-28-20a25 25 0 0 0-10 0L71 95v39z"/><path fill="#6019ea" d="M71 167c-13 6-24 4-32-6v-2a265 265 0 0 0 23-1 33 33 0 0 0 0-16 265 265 0 0 0-23 0l1-3c8-12 19-13 31-5l6 8c1-2 2-3 4-3l56-2a18 18 0 0 0 4-5l2-39c7-9 16-11 27-5a13 13 0 0 1 4 8 3305 3305 0 0 1 0 115c-2 5-5 9-11 10-9 2-15-1-20-7l-2-45c-1-4-4-7-7-8l-54-1-3-1-6 8z"/><path fill="#611deb" d="M99 100a128 128 0 0 1 16 0l2 3c5 15-1 22-16 19a12 12 0 0 1-5-3v-16a11 11 0 0 0 3-3z"/><path fill="#ef8636" d="M183 127c8-1 17 0 26 1v68c7-1 15 0 22 1a37 37 0 0 1 2 11l-2 13h-46l-3-2a571 571 0 0 1 1-92z"/><path fill="#ef8535" d="M237 127h37c21 4 30 17 27 39-5 19-19 29-39 29l-1 25-13 2-11-1c-2-32-2-63 0-94z"/><path fill="#ed8338" d="M39 142a265 265 0 0 1 23 0 33 33 0 0 1 0 16 265 265 0 0 1-23 1v-17z"/><path fill="#fefbf9" d="M262 150c11 0 15 5 11 17-3 3-7 5-11 5v-22z"/><path fill="#f8d3bc" d="m40 139-1 3v65a1893 1893 0 0 1 1-68z"/><path fill="#ee8436" d="M39 161c8 10 19 12 32 6l-1 46c-2 5-5 7-10 8-13 3-20-2-21-14v-46z"/></svg>